<?xml version="1.0" encoding="UTF-8" standalone="no"?>
<svg  
   xmlns:rdf="http://www.w3.org/1999/02/22-rdf-syntax-ns#"
   xmlns:svg="http://www.w3.org/2000/svg"
   xmlns="http://www.w3.org/2000/svg"
   version="1.1" 
   border="0" height="320" alt="RFV"

   
   viewBox="0 0 320 320"  >
   <!-- viewBox="320 0 960 320"> -->
   <!-- viewBox="0 0 1280 320" >  -->
   

<defs>
  <linearGradient id="RFV">
    <stop style="stop-color:rgb(128, 128, 128);stop-opacity:1"/>
  </linearGradient>
</defs>
<!-- Z -->
<rect x="33" y="2" width="189" height="60" style="fill:white;fill-opacity:1;stroke:white;stroke-width:4"/> 
<rect x="-4" y="98" width="264" height="60" style="fill:white;fill-opacity:1;stroke:white;stroke-width:4" transform = "rotate(-45 128 128)"/> 
<rect x="33" y="194" width="189" height="60" style="fill:white;fill-opacity:1;stroke:white;stroke-width:4"/> 

<rect x="33" y="2" width="189" height="60" style="fill:black;fill-opacity:0.5;stroke:black;stroke-width:4"/> 
<rect x="-4" y="98" width="264" height="60" style="fill:black;fill-opacity:0.5;stroke:black;stroke-width:4" transform = "rotate(-45 128 128)"/> 
<rect x="33" y="194" width="189" height="60" style="fill:black;fill-opacity:0.5;stroke:black;stroke-width:4"/> 

<circle cx="32" cy="32" r="30" style="fill:rgb(101, 101, 255);stroke:black;stroke-width:4"/>
<circle cx="224" cy="32" r="30" style="fill:rgb(0, 167, 0);stroke:black;stroke-width:4"/>
<circle cx="32" cy="224" r="30" style="fill:rgb(234, 0, 0);stroke:black;stroke-width:4"/>
<circle cx="224" cy="224" r="30" style="fill:rgb(255, 255, 0);stroke:black;stroke-width:4"/>

<!-- R -->
<path   
   fill="url(#RFV)"
   d="M 320 16 q 0 -16 16 -16 h 32 q 16 0 16 16 v 48 h 64 v -48 q 0 -16 16 -16 h 96 q 16 0 16 16 v 32 q 0 16 -16 16 h -112 v 48 q 0 16 -16 16 h -48 v 112 q 0 16 -16 16 h -32 q -16 0 -16 -16 z"/>
<!-- F -->
<path   
   fill="url(#RFV)"
   d="M 880 0 q 16 0 16 16 v 32 q 0 16 -16 16 h -112 v 64 h 48 q 16 0 16 16 v 32 q 0 16 -16 16 h -48 v 48 q 0 16 -16 16 h -32 q -16 0 -16 -16 v -48 h -48 q -16 0 -16 -16 v -32 q 0 -16 16 -16 h 48 v -48 q 0 -16 16 -16 h 48 v -48 q 0 -16 16 -16 z"/>
<!-- V -->
<path   
   fill="url(#RFV)"
   d="M 960 16 q 0 -16 16 -16 h 32 q 16 0 16 16 v 112 h 48 q 16 0 16 16 v 48 h 64 v -176 q 0 -16 16 -16 h 32 q 16 0 16 16 v 160 q 0 16 -16 16 h -48 v 48 q 0 16 -16 16 h -32 q -16 0 -16 -16 v -48 h -48 q -16 0 -16 -16 v -48 h -48 q -16 0 -16 -16 z"/>
</svg>
