<?xml version="1.0" encoding="UTF-8" standalone="no"?>
<svg  
   xmlns:rdf="http://www.w3.org/1999/02/22-rdf-syntax-ns#"
   xmlns:svg="http://www.w3.org/2000/svg"
   xmlns="http://www.w3.org/2000/svg"
   version="1.1"
   width="1280"
   height="320">
<defs>
  <linearGradient id="RFV">
    <stop style="stop-color:black;stop-opacity:0.5"/>
  </linearGradient>
</defs>
   <rect x="33" y="1" width="190" height="62" style="fill:black;fill-opacity:0.5;stroke:black;stroke-width:2"/> 
   <rect x="-4" y="97" width="264" height="62" style="fill:black;fill-opacity:0.5;stroke:black;stroke-width:2" transform = "rotate(-45 128 128)"/> 
   <rect x="33" y="193" width="190" height="62" style="fill:black;fill-opacity:0.5;stroke:black;stroke-width:2"/> 

   <circle cx="32" cy="32" r="31" style="fill:rgb(101, 101, 255);stroke:black;stroke-width:2"/>
   <circle cx="224" cy="32" r="31" style="fill:rgb(0, 167, 0);stroke:black;stroke-width:2"/>
   <circle cx="32" cy="224" r="31" style="fill:rgb(234, 0, 0);stroke:black;stroke-width:2"/>
   <circle cx="224" cy="224" r="31" style="fill:rgb(255, 255, 0);stroke:black;stroke-width:2"/>
<!-- R -->

<path   
   fill="url(#RFV)"
   d="M 320 16 q 0 -16 16 -16 h 32 q 16 0 16 16 v 48 h 64 v -48 q 0 -16 16 -16 h 96 q 16 0 16 16 v 32 q 0 16 -16 16 h -112 v 48 q 0 16 -16 16 h -48 v 112 q 0 16 -16 16 h -32 q -16 0 -16 -16 z"/>
<!-- F -->

<path   
   fill="url(#RFV)"
   d="M 880 0 q 16 0 16 16 v 32 q 0 16 -16 16 h -112 v 64 h 48 q 16 0 16 16 v 32 q 0 16 -16 16 h -48 v 48 q 0 16 -16 16 h -32 q -16 0 -16 -16 v -48 h -48 q -16 0 -16 -16 v -32 q 0 -16 16 -16 h 48 v -48 q 0 -16 16 -16 h 48 v -48 q 0 -16 16 -16 z"/>
<!-- V -->

<path
   fill="url(#RFV)"
   d="M 960 16 q 0 -16 16 -16 h 32 q 16 0 16 16 v 112 h 48 q 16 0 16 16 v 48 h 64 v -176 q 0 -16 16 -16 h 32 q 16 0 16 16 v 160 q 0 16 -16 16 h -48 v 48 q 0 16 -16 16 h -32 q -16 0 -16 -16 v -48 h -48 q -16 0 -16 -16 v -48 h -48 q -16 0 -16 -16 z"/>
</svg>
